<svg width="64" height="64" viewBox="0 0 64 64" xmlns="http://www.w3.org/2000/svg">
  <defs>
    <linearGradient id="huecorarioGradient" x1="0%" y1="0%" x2="0%" y2="100%">
      <stop offset="0%" stop-color="#00B2FF"/>
      <stop offset="100%" stop-color="#007BFF"/>
    </linearGradient>
  </defs>

  <!-- Fondo cuadrado redondeado -->
  <rect width="64" height="64" rx="16" fill="url(#huecorarioGradient)" />

  <!-- H más grande, con palo horizontal más delgado -->
  <path
    d="M21 14c-1.1 0-2 .9-2 2v32c0 1.1.9 2 2 2h4c1.1 0 2-.9 2-2v-10h10v10c0 1.1.9 2 2 2h4c1.1 0 2-.9 2-2V16c0-1.1-.9-2-2-2h-4c-1.1 0-2 .9-2 2v10H27V16c0-1.1-.9-2-2-2h-4z"
    fill="white"
  />
</svg>
